# xmcd
#
# Track frame offsets: 
#        150
#        15483
#        32980
#        48264
#        72025
#        84712
#        103929
#        117298
#        130658
#        151591
#        180422
#        210508
#        227716
#        255335
#        269710
#        287367
#        306749
#
# Disc length: 4280 seconds
#
# Revision: 0
# Processed by: cddbd v1.5.2PL0 Copyright (c) Steve Scherf et al.
# Submitted via: ExactAudioCopy v1.0b3
#
DISCID=e310b611
DTITLE=Walt Wilkins and the Mystiqueros - Wildcat Pie and The Great Walapa
DTITLE=teya
DYEAR=2014
DGENRE=Country
TTITLE0=It's Only Rain
TTITLE1=King for a Day
TTITLE2=Hold Me Tight
TTITLE3=Somebody
TTITLE4=Love and A Good Buzz
TTITLE5=Streets of Baltimore
TTITLE6=Salinda
TTITLE7=If I Had a Little Truck
TTITLE8=Beautiful Texas Sunshine
TTITLE9=This Old House
TTITLE10=From Here to There
TTITLE11=She Must Be Out of Her Mind
TTITLE12=Down Where the River Flows
TTITLE13=Under the Midnight Sky
TTITLE14=Believe
TTITLE15=Give Me Strength
TTITLE16=Dancing in the Moonlight
EXTD=
EXTT0=
EXTT1=
EXTT2=
EXTT3=
EXTT4=
EXTT5=
EXTT6=
EXTT7=
EXTT8=
EXTT9=
EXTT10=
EXTT11=
EXTT12=
EXTT13=
EXTT14=
EXTT15=
EXTT16=
PLAYORDER=
